<?xml version="1.0" encoding="UTF-8" standalone="no"?>
<!-- Created with Inkscape (http://www.inkscape.org/) -->

<svg
   width="1024"
   height="1024"
   viewBox="0 0 270.93333 270.93334"
   version="1.1"
   id="svg5"
   inkscape:version="1.1 (c68e22c387, 2021-05-23)"
   sodipodi:docname="Canvas.svg"
   inkscape:export-filename="C:\Users\PCerdaigle\Downloads\MixedReality\food.png"
   inkscape:export-xdpi="96"
   inkscape:export-ydpi="96"
   xmlns:inkscape="http://www.inkscape.org/namespaces/inkscape"
   xmlns:sodipodi="http://sodipodi.sourceforge.net/DTD/sodipodi-0.dtd"
   xmlns="http://www.w3.org/2000/svg"
   xmlns:svg="http://www.w3.org/2000/svg">
  <sodipodi:namedview
     id="namedview7"
     pagecolor="#ffffff"
     bordercolor="#999999"
     borderopacity="1"
     inkscape:pageshadow="0"
     inkscape:pageopacity="1"
     inkscape:pagecheckerboard="0"
     inkscape:document-units="mm"
     showgrid="false"
     units="px"
     inkscape:zoom="0.73406285"
     inkscape:cx="356.23653"
     inkscape:cy="533.33308"
     inkscape:window-width="1920"
     inkscape:window-height="1009"
     inkscape:window-x="-8"
     inkscape:window-y="-8"
     inkscape:window-maximized="1"
     inkscape:current-layer="layer1" />
  <defs
     id="defs2" />
  <g
     inkscape:label="Layer 1"
     inkscape:groupmode="layer"
     id="layer1">
    <path
       style="fill:#000000;stroke-width:0.264583"
       d="m 80.031541,259.45973 c -3.048706,-1.05373 -5.251823,-1.95927 -5.413121,-2.22492 -0.195029,-0.32122 -0.152336,-0.8079 0.150866,-1.7198 0.30676,-0.92259 9.511981,-25.77923 10.906271,-29.44993 0.1218,-0.32065 -0.87748,-0.65094 -5.203156,-1.71979 -3.967409,-0.98032 -5.508382,-1.47427 -5.9504,-1.90738 l -0.59649,-0.58446 0.75456,-2.06137 c 0.415007,-1.13376 4.958419,-13.28435 10.096466,-27.00133 5.13805,-13.71697 9.277638,-25.00422 9.199088,-25.08277 -0.0786,-0.0785 -6.788968,-2.16968 -14.912046,-4.64696 -8.123079,-2.47728 -14.982942,-4.61852 -15.244141,-4.75831 -0.261197,-0.13979 -0.474903,-0.53881 -0.474903,-0.8867 0,-0.57116 62.826225,-129.911323 63.898825,-131.548323 0.54053,-0.824947 -1.35693,-0.978513 16.61782,1.344924 7.39462,0.955837 13.72196,1.737886 14.06076,1.737886 0.33879,0 0.67129,-0.148828 0.73887,-0.330729 0.0676,-0.181901 1.58634,-4.319323 3.37502,-9.194271 1.78866,-4.874948 3.46501,-9.090861 3.72521,-9.368695 0.46538,-0.4969141 0.54419,-0.4952371 4.83297,0.102829 2.39794,0.33439 4.46603,0.680771 4.59576,0.769736 0.43609,0.299059 2.45477,3.286996 2.45477,3.633412 0,0.188543 -1.24447,3.885624 -2.76549,8.215736 -1.52103,4.330113 -2.71756,7.920869 -2.65898,7.979458 0.0586,0.05859 6.51205,0.923715 14.34102,1.922498 9.41132,1.20065 14.50345,1.958121 15.02825,2.235494 1.41243,0.746522 3.90284,3.225199 3.89976,3.881393 -0.002,0.332298 -3.23245,12.3142 -7.17975,26.626447 l -7.17692,26.022265 5.0332,45.9444 c 2.76827,25.26942 6.53145,59.61067 8.36263,76.31388 2.64971,24.16953 3.26361,30.44875 3.00712,30.75781 -0.18251,0.21991 -0.76979,0.38834 -1.35404,0.38834 -0.58397,0 -1.80154,0.34904 -2.80548,0.80425 l -1.77372,0.80424 -3.91231,-0.18218 c -2.3048,-0.10732 -4.0881,-0.31072 -4.34015,-0.49502 -0.34935,-0.25546 -1.40741,-8.25679 -5.76812,-43.62037 -2.93716,-23.81914 -5.45182,-43.40995 -5.58813,-43.53512 -0.31537,-0.2896 -8.51738,-2.29967 -8.68791,-2.12914 -0.07,0.07 -1.91145,6.60024 -4.09221,14.51175 -2.18077,7.91152 -4.12266,14.54 -4.31533,14.72997 -0.23232,0.22907 -1.73159,0.42991 -4.45135,0.59631 l -4.10105,0.25092 -5.55625,-1.67435 c -3.05593,-0.9209 -10.85213,-3.28953 -17.32488,-5.26364 -6.47275,-1.97411 -11.90867,-3.58929 -12.07982,-3.58929 -0.17115,0 -0.48785,0.50602 -0.70378,1.12448 -0.21593,0.61846 -4.70068,13.38792 -9.96612,28.37656 -5.26544,14.98865 -11.719545,33.38381 -14.342455,40.87813 -2.62291,7.49432 -4.97447,13.83989 -5.22569,14.10126 -0.36596,0.38074 -1.005148,0.4973 -3.215338,0.58631 l -2.75859,0.1111 z m 7.591926,-7.46548 c 6.905868,-19.2683 27.579403,-77.51911 27.579403,-77.70915 0,-0.21046 -6.61151,-2.30991 -6.73847,-2.13977 -0.0316,0.0424 -4.49875,12.10236 -9.926945,26.79996 -5.42819,14.69761 -12.352538,33.43779 -15.387428,41.64487 -3.034896,8.20706 -5.517992,15.00328 -5.517992,15.10269 0,0.25858 7.508452,2.61828 7.699212,2.41965 0.0872,-0.0908 1.11872,-2.84403 2.29222,-6.11825 z m 2.971108,2.64583 c 10.454645,-29.62551 27.626155,-78.58873 27.721015,-79.04427 0.17602,-0.84526 -0.36289,-0.74005 -0.67764,0.13229 -1.14342,3.1691 -28.298373,79.44998 -28.780533,80.84731 -0.62001,1.79681 -0.62026,1.80275 -0.0727,1.71979 0.44743,-0.0678 0.78339,-0.74626 1.809898,-3.65512 z M 201.91122,243.35935 c 0.78641,-0.30034 1.13332,-0.58705 1.13332,-0.93666 0,-0.61545 -0.41794,-4.27961 -8.8813,-77.86397 -3.71508,-32.30053 -6.79759,-58.77115 -6.85003,-58.82359 -0.11965,-0.11965 0.13448,-1.00557 -3.29853,11.49907 l -2.91793,10.6285 1.5655,12.65484 c 3.02807,24.47776 5.06312,40.98697 8.73511,70.86317 2.03894,16.58937 3.77688,30.60396 3.86209,31.14353 l 0.15492,0.98102 1.89686,0.0909 c 1.04327,0.05 2.25006,0.11454 2.68176,0.14345 0.4317,0.0289 1.2949,-0.14219 1.91823,-0.38024 z M 96.233135,197.49008 c 5.176225,-14.04276 9.448605,-25.69639 9.494175,-25.89695 0.0592,-0.26036 -1.20378,-0.75999 -4.41506,-1.74666 -2.473865,-0.76009 -4.520195,-1.36748 -4.547405,-1.34974 -0.11074,0.0722 -19.397393,51.77316 -19.397393,51.99784 0,0.28748 -0.09092,0.25828 4.630208,1.48727 2.037287,0.53034 3.882757,1.0633 4.101037,1.18435 0.21829,0.12106 0.47029,0.13822 0.56,0.0381 0.0897,-0.10007 4.398218,-11.67149 9.574438,-25.71425 z m 65.414655,-13.92319 1.33345,-0.16026 1.23014,-4.4015 c 0.67658,-2.42083 3.78753,-13.68838 6.91323,-25.03901 10.8191,-39.28841 22.47141,-81.563099 27.01979,-98.028122 4.45703,-16.134319 4.55624,-16.548971 4.08002,-17.050926 -0.26845,-0.282958 -0.55211,-0.450455 -0.63034,-0.372218 -0.0782,0.07824 -2.33083,7.453498 -5.00575,16.389467 -16.1295,53.882899 -27.05693,90.400559 -32.29524,107.925339 -3.28407,10.98683 -6.0368,20.18441 -6.1172,20.43907 -0.12383,0.39226 0.0284,0.46267 0.99614,0.46072 0.62827,-0.001 1.74236,-0.0744 2.47576,-0.16256 z m -6.03079,-1.09191 c 0.144,-0.54571 7.07254,-23.73313 15.39676,-51.52761 26.21255,-87.523402 28.09862,-93.846711 28.01321,-93.91853 -0.12341,-0.103762 -68.77607,-8.875089 -69.45216,-8.873473 -0.47994,0.0011 -0.88494,0.635671 -2.40735,3.771692 -1.00668,2.073672 -11.9861,24.606251 -24.3987,50.072398 -12.412603,25.466143 -25.642042,52.611433 -29.398758,60.322873 -6.564664,13.47533 -6.807623,14.02934 -6.245116,14.2406 0.3219,0.12089 19.456681,5.97449 42.521734,13.00799 23.06506,7.0335 42.71037,13.02636 43.65626,13.31747 0.94588,0.2911 1.7946,0.54042 1.88604,0.55403 0.0914,0.0136 0.28407,-0.42174 0.42808,-0.96744 z m 26.18031,-27.38438 c -0.0759,-0.32742 -0.28286,-1.85991 -0.46001,-3.40554 l -0.32209,-2.81023 -2.62379,-0.59489 c -1.44308,-0.3272 -2.6651,-0.55087 -2.71559,-0.49707 -0.0505,0.0538 -0.44819,1.38665 -0.88378,2.96187 -0.66723,2.41295 -0.73091,2.88746 -0.40433,3.01278 0.43787,0.16802 6.96977,1.86727 7.3204,1.90437 0.12492,0.0132 0.16506,-0.24387 0.0892,-0.57129 z m -1.23846,-9.525 c 0.007,-0.63457 -1.11704,-9.85891 -1.24986,-10.2526 -0.12888,-0.38203 -0.50231,0.81296 -2.16648,6.93267 l -0.77002,2.83164 1.62821,0.38615 c 2.07595,0.49235 2.55334,0.51141 2.55815,0.10214 z M 169.57475,21.780299 c 1.60073,-4.522685 2.94504,-8.316259 2.98736,-8.430165 0.0744,-0.200226 -3.33096,-0.805 -4.51952,-0.802647 -0.49426,9.79e-4 -0.71383,0.358438 -1.42208,2.315104 -0.46066,1.272671 -1.85579,5.046318 -3.10028,8.385881 -1.2445,3.339564 -2.2324,6.102259 -2.19534,6.139322 0.11373,0.113722 3.43087,0.553897 4.4134,0.585646 l 0.92604,0.02992 z"
       id="path950"
       sodipodi:nodetypes="sssssscsscsssssssssssssssscscssssscsssssssscsssssssscssssssssssssssssssssscssscsssscsssssssccscsssssssscsssscsssssssssscssssssscsscscssssssscs" />
  </g>
</svg>
