<?xml version="1.0" encoding="UTF-8" standalone="no"?>
<!-- Created with Inkscape (http://www.inkscape.org/) -->

<svg
   width="1024"
   height="1024"
   viewBox="0 0 270.93333 270.93334"
   version="1.1"
   id="svg5"
   inkscape:version="1.1 (c68e22c387, 2021-05-23)"
   sodipodi:docname="Food.svg"
   inkscape:export-filename="C:\Users\PCerdaigle\Downloads\MixedReality\food.png"
   inkscape:export-xdpi="96"
   inkscape:export-ydpi="96"
   xmlns:inkscape="http://www.inkscape.org/namespaces/inkscape"
   xmlns:sodipodi="http://sodipodi.sourceforge.net/DTD/sodipodi-0.dtd"
   xmlns="http://www.w3.org/2000/svg"
   xmlns:svg="http://www.w3.org/2000/svg">
  <sodipodi:namedview
     id="namedview7"
     pagecolor="#ffffff"
     bordercolor="#999999"
     borderopacity="1"
     inkscape:pageshadow="0"
     inkscape:pageopacity="1"
     inkscape:pagecheckerboard="0"
     inkscape:document-units="mm"
     showgrid="false"
     units="px"
     inkscape:zoom="0.73406285"
     inkscape:cx="354.87425"
     inkscape:cy="533.33308"
     inkscape:window-width="1920"
     inkscape:window-height="1009"
     inkscape:window-x="-8"
     inkscape:window-y="-8"
     inkscape:window-maximized="1"
     inkscape:current-layer="layer1" />
  <defs
     id="defs2" />
  <g
     inkscape:label="Layer 1"
     inkscape:groupmode="layer"
     id="layer1">
    <path
       style="fill:#000000;stroke-width:0.478142"
       d="m 123.89961,232.30263 c -40.195249,-1.76382 -74.43485,-14.4341 -82.326741,-30.4648 -1.422219,-2.88894 -1.569417,-3.59249 -1.569417,-7.50127 0,-3.65028 0.190911,-4.71759 1.241927,-6.94312 3.492688,-7.39577 11.995512,-14.05938 24.976286,-19.57376 2.585998,-1.09855 4.973302,-1.93127 5.30512,-1.85047 0.478415,0.1165 0.462319,0.64914 -0.07775,2.57299 -0.676591,2.41018 -0.705112,2.4364 -4.348835,3.9979 -3.55574,1.52381 -5.212747,2.43026 -12.274338,6.71462 -6.898286,4.18528 -8.920969,7.40693 -8.994967,14.32685 -0.05356,5.00831 0.933486,7.36094 4.873923,11.61709 17.123836,18.49578 72.038662,27.62595 119.972602,19.9467 27.59508,-4.42086 47.95207,-14.10119 53.0602,-25.23164 1.02397,-2.23121 1.13302,-2.98946 0.89394,-6.21585 -0.77783,-10.49721 -1.33411,-12.21309 -5.17103,-15.95037 -2.98689,-2.90933 -5.61808,-4.71752 -11.09838,-7.62699 -2.39576,-1.2719 -4.12147,-2.31667 -3.83491,-2.32172 0.89357,-0.0157 9.56236,4.56806 13.15155,6.95414 10.36046,6.88763 15.01154,15.67889 12.64696,23.90471 -1.08699,3.78137 -2.93592,6.57784 -6.84285,10.34965 -11.32001,10.92856 -32.97654,18.64587 -62.03133,22.1049 -5.88037,0.70007 -23.87788,1.7625 -27.49318,1.62298 -0.92042,-0.0355 -5.44688,-0.23016 -10.05878,-0.43254 z M 84.709749,217.94312 c -8.427257,-2.49086 -17.317355,-6.07068 -22.01422,-8.86457 -3.759034,-2.23604 -8.586881,-6.0967 -8.586881,-6.86663 0,-0.22435 2.477243,0.76057 5.504986,2.18872 3.027742,1.42815 5.578834,2.59663 5.669094,2.59663 0.09026,0 2.01886,1.06727 4.285778,2.37171 2.266917,1.30445 7.623101,3.89157 11.902631,5.74916 12.918448,5.60743 13.054785,5.72635 3.238612,2.82498 z m 95.680011,0.79675 c 0.11602,-0.11602 3.43313,-1.59167 7.37136,-3.27922 8.80023,-3.77094 13.51647,-6.12689 17.00921,-8.49675 2.96319,-2.01058 6.53229,-5.74912 7.53926,-7.89721 0.3592,-0.76626 0.80981,-1.71093 1.00137,-2.09927 0.33411,-0.67734 6.51375,-4.29169 7.36392,-4.307 0.55776,-0.01 -0.0808,3.20373 -0.99282,4.99655 -4.13561,8.12985 -14.21004,14.13395 -32.98619,19.65895 -5.29839,1.55908 -6.77457,1.89241 -6.30611,1.42395 z m -65.07892,-2.01448 c -0.92042,-0.0879 -4.02677,-0.38724 -6.90299,-0.66521 -14.607174,-1.41168 -30.577857,-6.26189 -46.910593,-14.24648 -5.298366,-2.59021 -7.091878,-3.72198 -8.493947,-5.35999 -2.230657,-2.60602 -2.94133,-5.02745 -2.239967,-7.63212 1.163749,-4.32183 5.332249,-7.05212 13.175916,-8.62998 2.684011,-0.53993 5.373931,-1.39279 6.218853,-1.97174 2.916973,-1.99874 3.563226,-3.59524 7.609196,-18.79774 2.209527,-8.30218 5.585022,-13.81256 11.124411,-18.16024 13.995101,-10.98426 48.464591,-13.55265 70.647281,-5.26405 6.56652,2.45359 12.3562,5.75624 17.7405,10.11988 1.40294,1.13699 2.44744,1.58992 3.6665,1.58992 2.58882,0 3.25671,-0.39378 2.92301,-1.72335 -0.15812,-0.63002 -0.21038,-1.16043 -0.11613,-1.17867 0.0942,-0.0183 2.95609,-0.39479 6.35963,-0.83675 l 6.18826,-0.80358 0.39262,-1.52597 c 0.54217,-2.1073 2.83194,-3.62036 5.85863,-3.87136 2.33234,-0.19341 2.6161,-0.0846 5.527,2.11858 1.68763,1.27736 3.5595,3.05357 4.1597,3.94714 1.89355,2.81908 1.17133,7.22505 -1.68341,10.26982 -3.06391,3.26787 -9.50922,4.7492 -11.59381,2.66461 l -0.98053,-0.98052 -2.24693,1.88357 c -1.23582,1.03597 -2.65293,2.33354 -3.14914,2.88351 -0.89135,0.98794 -0.88114,1.02563 0.84955,3.13772 2.22815,2.71916 3.24362,3.42234 9.37642,6.49283 6.33429,3.17137 9.67205,5.43783 12.55805,8.52735 2.66603,2.85404 3.22064,4.09604 3.22064,7.21237 0,4.10378 -2.94147,6.00316 -12.34673,7.97257 -4.35091,0.91107 -6.05862,1.50588 -7.73524,2.69428 -15.65971,11.09965 -27.1269,15.61583 -47.00684,18.51293 -10.8156,1.57614 -28.4071,2.36394 -36.18991,1.62067 z m 39.36166,-5.84672 c 16.13966,-2.63968 27.63493,-6.80827 38.81459,-14.07554 4.47977,-2.91205 5.11297,-3.17324 10.03671,-4.14016 6.16276,-1.21023 9.42127,-2.7754 10.49681,-5.04195 1.06234,-2.23871 0.49716,-4.16996 -2.04916,-7.00208 -1.89903,-2.11218 -3.40387,-3.0279 -11.40456,-6.93993 -8.99346,-4.39745 -9.29502,-4.59299 -12.44133,-8.06689 -1.77346,-1.95812 -3.44737,-3.56021 -3.71981,-3.56021 -1.08561,0 -6.45845,4.89902 -8.48948,7.74082 -1.18609,1.65956 -3.31303,4.10914 -4.72654,5.44353 -2.22078,2.09646 -3.10013,2.56918 -6.47112,3.47878 -5.33472,1.43946 -11.56473,2.14358 -16.36427,1.84949 -7.67163,-0.47007 -12.602,-4.27954 -14.94109,-11.54426 -3.56512,-11.07257 1.2968,-20.10986 12.37113,-22.99532 6.48148,-1.68877 14.59661,-1.40736 21.73406,0.75369 1.63262,0.49431 3.03655,0.83059 3.11985,0.74729 0.2676,-0.2676 -4.88233,-3.51067 -8.28204,-5.21546 -8.61364,-4.31932 -16.81506,-6.08214 -29.86061,-6.41824 -21.69907,-0.55906 -36.159065,3.45355 -45.068396,12.50637 -3.69095,3.75039 -6.457249,9.37793 -9.303008,18.92529 -1.291321,4.33231 -2.704425,8.56509 -3.140233,9.40617 -1.341922,2.58984 -3.572834,3.88522 -8.493228,4.93161 -5.649511,1.20146 -8.511921,2.62337 -9.704202,4.82063 -2.270179,4.18371 1.340891,8.79924 9.753772,12.46687 14.522409,6.33112 31.104001,10.72934 47.465995,12.59024 9.0863,1.03341 32.64847,0.65058 40.66616,-0.66074 z m -18.56247,-1.72117 c -4.52036,-0.72561 -7.64038,-1.74181 -11.23634,-3.65972 -2.28776,-1.22017 -6.69399,-4.72857 -6.69399,-5.32999 0,-0.1153 1.90552,0.50611 4.2345,1.38091 7.91625,2.97346 12.23299,3.72356 21.58518,3.75075 7.34328,0.0213 8.82955,-0.10951 12.14243,-1.06906 7.33925,-2.12575 14.61324,-6.20456 22.02278,-12.34904 3.156,-2.61718 3.26474,-2.77348 2.1388,-3.0746 -2.76123,-0.73847 -14.18575,-1.52124 -17.80145,-1.2197 -3.50185,0.29204 -4.52821,0.64264 -10.82697,3.6985 l -6.95838,3.37587 -2.39071,-1.24847 c -4.75077,-2.48093 -9.40217,-5.14404 -9.24513,-5.2932 0.0882,-0.0838 2.55138,0.47309 5.47364,1.23754 l 5.31322,1.38992 6.98002,-3.58945 c 3.83902,-1.9742 7.58025,-3.58713 8.31384,-3.58428 0.73359,0.003 2.38019,0.32263 3.65909,0.71063 2.075,0.62951 2.68844,0.62285 5.69917,-0.0619 4.68082,-1.06462 9.82196,-0.72206 13.34084,0.88894 1.48436,0.67956 2.91713,1.64346 3.18394,2.14201 1.2704,2.37377 -3.35362,7.79317 -10.98651,12.8763 -11.63401,7.74768 -25.44912,11.03439 -37.94797,9.02807 z m -29.08697,-4.8697 c -0.17532,-0.17532 -0.31877,-1.03597 -0.31877,-1.91257 0,-1.90178 1.14863,-2.15124 2.93541,-0.63752 l 1.12879,0.95628 -1.12879,0.95629 c -1.15828,0.98126 -2.05454,1.19963 -2.61664,0.63752 z m 52.27687,-4.70935 c 0,-0.10313 2.00488,-1.38394 4.45531,-2.84624 2.45042,-1.46229 5.18217,-3.40865 6.07057,-4.32524 1.20288,-1.24106 2.01856,-1.66653 3.19497,-1.66653 0.86883,0 1.56952,0.16137 1.55708,0.3586 -0.0661,1.04721 -5.65999,4.63736 -10.16924,6.52656 -2.80978,1.1772 -5.10869,2.05598 -5.10869,1.95285 z M 70.451668,197.0881 c -2.450891,-1.21699 -5.347908,-3.00407 -6.437814,-3.97128 -1.75746,-1.55961 -1.967462,-1.9692 -1.856253,-3.62049 0.06897,-1.02406 0.291691,-2.02823 0.494942,-2.23148 0.203252,-0.20325 2.398348,-0.9206 4.877993,-1.5941 2.479645,-0.6735 5.455611,-1.74796 6.61326,-2.38769 1.157648,-0.63973 2.166451,-1.10151 2.241784,-1.02617 0.07533,0.0753 -0.20388,0.84074 -0.620472,1.70091 -0.863176,1.78226 -1.548231,2.24074 -5.877767,3.93372 -4.80638,1.87945 -4.42708,3.32811 2.263454,8.64483 1.945295,1.54585 3.361431,2.80026 3.146969,2.78756 -0.214462,-0.0127 -2.395205,-1.01881 -4.846096,-2.23581 z m 18.880124,1.94013 c -0.175321,-0.17531 -0.318763,-1.11371 -0.318763,-2.08533 0,-1.61497 0.100127,-1.74743 1.166743,-1.54354 0.64171,0.12268 1.513593,0.6063 1.937514,1.07473 0.716008,0.79118 0.679487,0.92349 -0.514013,1.8623 -1.370073,1.0777 -1.765263,1.19807 -2.271481,0.69184 z m 10.751758,-4.10252 c -0.689284,-0.68928 -0.729582,-3.70713 -0.0495,-3.70713 0.74452,0 3.3244,1.40458 3.31593,1.80531 -0.0275,1.29942 -2.45528,2.71297 -3.26643,1.90182 z m 104.93011,-7.81045 c -0.53495,-1.39405 -0.3142,-3.06881 0.40449,-3.06881 1.17595,0 3.13042,1.07583 3.13042,1.72313 0,0.68223 -1.81355,2.102 -2.68501,2.102 -0.30782,0 -0.69027,-0.34034 -0.8499,-0.75632 z M 82.637799,184.20583 c -0.175319,-0.17532 -0.318761,-1.12495 -0.318761,-2.11029 0,-1.70845 0.05928,-1.77568 1.278308,-1.44965 0.703069,0.18803 1.509934,0.7208 1.793033,1.18395 0.412432,0.67474 0.290397,1.02619 -0.614065,1.76842 -1.207872,0.99123 -1.633836,1.11225 -2.138515,0.60757 z M 193.32127,180.1033 c -0.48555,-0.48555 -0.81897,-3.70713 -0.38367,-3.70713 0.79918,0 3.15123,1.14983 3.33577,1.63074 0.49875,1.29971 -1.98313,3.04536 -2.9521,2.07639 z m -94.672146,-1.91256 c -0.303266,-0.30327 -0.551394,-1.28476 -0.551394,-2.1811 0,-1.53725 0.07459,-1.61142 1.314891,-1.30733 2.007769,0.49223 2.821719,1.45965 2.030359,2.41318 -1.03712,1.24966 -2.179711,1.68939 -2.793856,1.07525 z M 83.894835,163.34861 c 0.656037,-6.72281 9.252871,-16.56147 17.024025,-19.48315 1.20965,-0.45478 2.95244,-0.98074 3.87287,-1.16879 1.48677,-0.30375 1.26329,-0.0566 -2.00293,2.215 -8.602258,5.98276 -15.142311,12.57149 -17.71261,17.84445 l -1.40476,2.88185 z m 55.163735,-19.30673 c -0.17532,-0.17531 -0.31876,-1.0593 -0.31876,-1.96439 0,-1.55464 0.0727,-1.62782 1.31489,-1.32328 0.72319,0.1773 1.62326,0.62426 2.00015,0.99324 0.5942,0.58172 0.56847,0.79991 -0.19365,1.64203 -0.87013,0.96149 -2.187,1.26803 -2.80263,0.6524 z m 20.00228,32.58784 c 6.45899,-0.9687 9.28534,-2.42087 12.55245,-6.4494 4.82796,-5.95314 7.10687,-8.08218 10.23523,-9.56214 1.6676,-0.7889 3.46233,-1.43784 3.98829,-1.44207 2.13934,-0.0172 2.22235,-0.56077 0.75052,-4.91501 -0.77112,-2.28126 -1.51567,-4.33162 -1.65456,-4.55636 -0.1389,-0.22473 -1.60604,-0.12501 -3.26032,0.22161 -1.65427,0.34662 -5.02958,0.6347 -7.50067,0.64018 -3.76866,0.008 -5.23309,-0.23313 -9.0847,-1.49811 -7.92959,-2.6043 -17.22883,-2.4164 -22.99471,0.46465 -5.06677,2.53172 -7.74258,8.05414 -6.81286,14.06061 1.38526,8.94958 6.92409,13.45333 16.84827,13.69972 1.1834,0.0294 4.30328,-0.26928 6.93306,-0.66368 z m 0.23908,-3.75165 c 0,-0.0941 1.23719,-0.9356 2.74931,-1.86998 2.99056,-1.84792 7.19736,-5.75822 10.73232,-9.97585 1.79431,-2.14083 2.67718,-2.78766 4.39548,-3.22033 2.12119,-0.53412 6.46573,-0.7105 5.07371,-0.20598 -4.57452,1.65798 -7.87963,4.29793 -11.11183,8.87553 -2.29809,3.25467 -3.97828,4.389 -8.35514,5.64066 -3.55182,1.01573 -3.48385,1.00098 -3.48385,0.75595 z m -8.76594,-1.10394 c -0.17532,-0.17532 -0.31877,-1.03597 -0.31877,-1.91257 0,-1.90178 1.14864,-2.15124 2.93542,-0.63752 l 1.12879,0.95628 -1.12879,0.95629 c -1.15828,0.98127 -2.05454,1.19963 -2.61665,0.63752 z M 143.84,170.81785 c -0.17532,-0.17532 -0.31877,-1.03598 -0.31877,-1.91257 0,-1.90178 1.14863,-2.15125 2.93542,-0.63752 l 1.12879,0.95628 -1.12879,0.95628 c -1.15828,0.98127 -2.05454,1.19964 -2.61665,0.63753 z m -7.4909,-9.29524 c 0,-1.59422 0.14231,-1.90911 0.75632,-1.6735 0.41598,0.15963 0.93852,0.29023 1.1612,0.29023 0.22269,0 0.75321,0.34832 1.17893,0.77404 0.71329,0.7133 0.71016,0.84463 -0.04,1.6735 -0.44768,0.4947 -1.31854,0.89945 -1.93523,0.89945 -0.99423,0 -1.12125,-0.22245 -1.12125,-1.96372 z m 7.4909,-0.74575 c -0.17532,-0.17532 -0.31877,-1.0593 -0.31877,-1.9644 0,-1.55463 0.0727,-1.62781 1.31489,-1.32327 0.72319,0.1773 1.62326,0.62426 2.00015,0.99323 0.5942,0.58173 0.56847,0.79991 -0.19364,1.64203 -0.87014,0.9615 -2.18701,1.26804 -2.80263,0.65241 z m 51.38425,-5.721 2.72117,-2.69278 2.10554,1.01928 c 5.1723,2.50387 9.93204,-0.11438 9.93204,-5.46344 0,-2.85607 -1.11911,-4.60695 -4.13663,-6.47188 -3.15754,-1.95147 -5.83733,-0.9365 -7.84081,2.9697 l -0.8871,1.72959 -4.31959,0.33791 c -4.44441,0.34768 -5.02324,0.59058 -4.52174,1.89747 0.20626,0.5375 0.9157,0.76036 2.42049,0.76036 2.34211,0 2.44299,0.66697 0.16964,1.12164 -1.60452,0.32091 -1.89607,1.42486 -0.77954,2.9518 0.58121,0.79485 0.8368,0.83527 2.0321,0.32132 l 1.36727,-0.5879 -1.32711,1.19208 c -1.0321,0.92707 -1.25974,1.46056 -1.02399,2.39985 0.16673,0.66427 0.54252,1.20777 0.83511,1.20777 0.29259,0 1.7565,-1.21175 3.25315,-2.69277 z m 7.34755,-3.67034 -1.91257,-0.48485 2.39071,-0.81281 2.39071,-0.81281 -0.12195,-2.27805 c -0.12127,-2.26543 -0.11597,-2.27408 0.95629,-1.56213 0.83194,0.55238 1.07823,1.17119 1.07823,2.70904 0,1.70323 -0.20864,2.11918 -1.43443,2.85979 -1.18799,0.71776 -1.76301,0.78337 -3.34699,0.38182 z m -90.82663,-28.90336 c -3.23058,-3.89206 -6.27267,-9.61008 -6.72018,-12.63143 -0.802,-5.41463 1.9988,-8.24159 13.20286,-13.326153 11.54876,-5.240992 15.60992,-8.707839 16.08765,-13.73338 0.37354,-3.929441 -2.00927,-5.755387 -12.31067,-9.43364 -2.76127,-0.98595 -5.81313,-2.193507 -6.78193,-2.683461 -6.06552,-3.067564 -3.38982,-8.395517 7.05681,-14.051801 7.55914,-4.092861 9.76611,-6.786954 9.76611,-11.921663 0,-2.338459 -0.71171,-3.562024 -2.51232,-4.319121 l -1.48074,-0.622605 1.49464,-0.772911 c 3.143,-1.625309 8.43933,-0.684345 11.2672,2.001772 2.0092,1.908477 2.70663,3.571695 2.70663,6.454637 0,3.795702 -1.16204,5.181845 -7.28192,8.686216 -5.79448,3.318046 -7.24326,4.513309 -8.5433,7.048345 -1.20589,2.351433 -1.14745,3.806678 0.21177,5.273292 1.432,1.545163 3.67494,2.515553 12.40583,5.3673 8.32189,2.718155 11.58771,4.515109 12.92011,7.109043 0.85317,1.660946 0.88502,2.083438 0.34058,4.516272 -0.88652,3.961375 -4.23584,7.075256 -11.94193,11.102461 -7.05506,3.686987 -9.29474,5.237247 -10.55687,7.307227 -2.41967,3.96845 0.0322,9.48939 7.53088,16.95722 2.17721,2.16826 3.9582,3.99716 3.95775,4.0642 -4.6e-4,0.067 -5.64851,0.12191 -12.55124,0.12191 -6.90272,0 -13.23954,0.15397 -14.08182,0.34214 -1.4498,0.32391 -1.67289,0.17171 -4.1859,-2.85587 z m 21.55055,-1.58382 c -1.45876,-1.33323 -3.28936,-3.53866 -4.06799,-4.90096 -2.11006,-3.69174 -3.5781,-8.53778 -3.19885,-10.55941 0.5004,-2.66736 4.34128,-6.401287 11.15281,-10.842252 10.93536,-7.129616 12.73316,-8.857344 12.18738,-11.712403 -0.37908,-1.983045 -3.61587,-4.289454 -8.03901,-5.728281 -2.22141,-0.722615 -4.1531,-1.199676 -4.29264,-1.060136 -0.13954,0.139539 0.94326,0.929236 2.40623,1.75488 3.71508,2.096668 6.46829,4.684659 6.46829,6.080144 0,2.760509 -4.99088,6.292632 -14.00928,9.914587 -6.34726,2.549172 -10.29482,4.941996 -13.61652,8.253691 -3.59345,3.58261 -5.10153,6.59094 -4.64844,9.27275 0.35022,2.07291 2.60274,6.04856 5.27397,9.30845 1.46736,1.79072 2.0532,2.16485 3.38983,2.16485 1.91889,0 1.96305,-0.28621 0.63403,-4.10889 -1.39657,-4.017 -1.83057,-6.8029 -1.44552,-9.27909 l 0.33459,-2.15164 0.57143,2.86885 c 1.01651,5.10348 2.42951,9.06315 3.83485,10.74653 1.39732,1.67376 2.93492,2.11567 8.12465,2.33506 l 1.59249,0.0673 z m -20.68074,-4.48674 c -2.88329,-6.07139 -2.65643,-9.14239 0.96608,-13.07821 l 1.96885,-2.13912 -2.43375,1.23144 c -2.63696,1.33426 -5.45841,4.17762 -5.45092,5.49324 0.002,0.45106 0.51249,1.91068 1.13317,3.2436 1.11433,2.3931 5.00164,8.81285 5.33637,8.81285 0.095,0 -0.58896,-1.60371 -1.5198,-3.5638 z m 28.2304,-31.005346 0.98489,-1.338261 -0.94755,-1.692917 c -0.52116,-0.931105 -1.66259,-2.135094 -2.53652,-2.675531 l -1.58897,-0.982612 0.9895,1.62308 c 1.55752,2.554801 1.30358,4.243168 -1.03902,6.907956 l -2.03211,2.311583 2.59245,-1.407517 c 1.42584,-0.774136 3.03564,-2.009736 3.57733,-2.745781 z M 125.38562,70.355407 c -2.39761,-2.281483 -2.90264,-3.034345 -2.90264,-4.327024 0,-2.125163 1.11315,-4.182478 3.75702,-6.943642 l 2.21975,-2.31824 -4.30328,2.154622 c -5.11489,2.560991 -8.36748,5.190919 -8.36748,6.765644 0,1.541463 2.53172,3.335039 7.79828,5.524625 2.41689,1.004825 4.46334,1.844756 4.54766,1.866512 0.0843,0.02176 -1.15286,-1.203366 -2.74931,-2.722497 z m 11.25682,-17.274981 c 1.5747,-0.960221 3.5318,-4.398146 3.5318,-6.204106 0,-0.591705 -0.24145,-1.545801 -0.53657,-2.120214 -0.61358,-1.194293 -2.83767,-3.674168 -3.29519,-3.674168 -0.16822,0 -0.0951,1.028566 0.16237,2.285702 0.62873,3.069284 0.13143,5.319873 -1.81445,8.211446 -1.54925,2.302171 -1.57583,2.412609 -0.58014,2.410903 0.57392,-0.001 1.7134,-0.410286 2.53218,-0.909563 z"
       id="path989" />
  </g>
</svg>
