<?xml version="1.0" encoding="UTF-8" standalone="no"?>
<!-- Created with Inkscape (http://www.inkscape.org/) -->

<svg
   width="1024"
   height="1024"
   viewBox="0 0 270.93333 270.93334"
   version="1.1"
   id="svg5"
   inkscape:version="1.1 (c68e22c387, 2021-05-23)"
   sodipodi:docname="House.svg"
   inkscape:export-filename="C:\Users\PCerdaigle\Downloads\MixedReality\house.png"
   inkscape:export-xdpi="400"
   inkscape:export-ydpi="400"
   xmlns:inkscape="http://www.inkscape.org/namespaces/inkscape"
   xmlns:sodipodi="http://sodipodi.sourceforge.net/DTD/sodipodi-0.dtd"
   xmlns="http://www.w3.org/2000/svg"
   xmlns:svg="http://www.w3.org/2000/svg">
  <sodipodi:namedview
     id="namedview7"
     pagecolor="#ffffff"
     bordercolor="#999999"
     borderopacity="1"
     inkscape:pageshadow="0"
     inkscape:pageopacity="0"
     inkscape:pagecheckerboard="0"
     inkscape:document-units="mm"
     showgrid="false"
     units="px"
     inkscape:zoom="0.73406285"
     inkscape:cx="477.47955"
     inkscape:cy="1119.114"
     inkscape:window-width="1920"
     inkscape:window-height="1009"
     inkscape:window-x="-8"
     inkscape:window-y="-8"
     inkscape:window-maximized="1"
     inkscape:current-layer="layer1" />
  <defs
     id="defs2" />
  <g
     inkscape:label="Layer 1"
     inkscape:groupmode="layer"
     id="layer1">
    <path
       style="fill:#000000;stroke-width:0.584415"
       d="m 58.845186,232.40579 c -0.03313,-0.24224 -0.0687,-2.80733 -0.07907,-5.7002 l -0.01767,-5.25975 2.708983,-0.17803 2.708983,-0.17825 V 166.0131 110.93659 l 13.295489,-9.28731 C 118.97823,72.648711 134.97774,61.607911 135.48682,61.607911 c 0.62157,0 1.73618,0.765775 39.13424,26.886774 13.98215,9.765959 26.93428,18.807265 28.78249,20.091805 l 3.36041,2.33552 v 55.0838 55.08377 l 2.67079,0.17825 2.67079,0.17804 0.0864,5.55194 0.0866,5.55196 -76.68598,0.14821 c -42.177275,0.0815 -76.713053,-0.0499 -76.746207,-0.29223 z M 117.93149,180.8289 V 140.50416 H 98.645749 79.360027 v 40.32474 40.32473 h 19.285722 19.285741 z m 44.41567,-2.62989 V 166.8029 h -12.85717 -12.85716 v 11.39611 11.39613 h 12.85716 12.85717 z m 29.22081,0 V 166.8029 h -12.85715 -12.85716 v 11.39611 11.39613 h 12.85716 12.85715 z m -29.22081,-26.29874 v -11.39611 h -12.85717 -12.85716 v 11.39611 11.39613 h 12.85716 12.85717 z m 29.22081,0 v -11.39611 h -12.27274 c -6.75,0 -12.46997,-0.0658 -12.71104,-0.14622 -0.24108,-0.0804 -0.50962,5.0479 -0.59678,11.39611 l -0.15838,11.54222 h 12.86951 12.86952 z M 133.71074,103.9781 v -6.720768 h -6.7208 c -7.45153,0 -7.46527,0.0088 -5.87406,3.817238 1.49033,3.56689 3.83978,6.03219 7.48431,7.85338 1.9492,0.97403 3.89647,1.77095 4.32728,1.77095 0.60935,0 0.78327,-1.49233 0.78327,-6.7208 z m 7.90187,5.34296 c 3.57659,-1.66552 6.18748,-4.18976 7.81851,-7.559 2.16934,-4.481293 2.14074,-4.504728 -5.49309,-4.504728 h -6.72079 v 6.720768 c 0,4.99008 0.18819,6.71934 0.73052,6.7151 0.40178,-0.002 2.05098,-0.62061 3.66485,-1.37214 z m 8.83233,-17.370149 c -1.31011,-6.550604 -8.26444,-12.226074 -14.98095,-12.226074 -6.71651,0 -13.67082,5.67547 -14.98094,12.226074 l -0.35999,1.799922 h 15.34093 15.34095 z m -104.850588,17.750839 0.161686,-8.5946 10.519497,-7.352827 C 117.77677,50.766755 134.09079,39.441819 135.03901,39.077952 c 0.45952,-0.17633 6.8271,3.891173 14.64622,9.355752 7.60829,5.317244 14.09567,9.667708 14.4164,9.667708 0.32313,0 0.58315,-1.563512 0.58315,-3.50649 v -3.506499 h 11.31703 11.31703 l 0.27821,12.051325 c 0.21999,9.529991 0.45051,12.152123 1.1018,12.533211 0.45298,0.265058 8.84473,6.093445 18.64832,12.95198 l 17.8247,12.470081 0.16169,8.60065 c 0.089,4.73036 -0.006,8.60066 -0.21205,8.60066 -0.40874,0 -15.91301,-10.75063 -69.20309,-47.985278 -4.01786,-2.807341 -10.26734,-7.133709 -13.8877,-9.614124 l -6.5825,-4.509855 -3.937,2.65109 C 129.34587,60.296249 109.2966,74.2655 86.957279,89.880917 64.617954,105.49633 46.136065,118.27793 45.886402,118.28446 c -0.249663,0.007 -0.381153,-3.85571 -0.292204,-8.58271 z m 115.704458,-66.941263 0.17163,-4.237019 14.75652,-0.156142 14.75652,-0.156141 v 4.393158 4.393157 h -14.92822 -14.92823 z"
       id="path841" />
  </g>
</svg>
